<svg xmlns="http://www.w3.org/2000/svg" viewBox="0 0 64 64">
  <defs>
    <linearGradient id="bg" x1="8" y1="8" x2="56" y2="56" gradientUnits="userSpaceOnUse">
      <stop offset="0" stop-color="#6366f1" />
      <stop offset="1" stop-color="#4f46e5" />
    </linearGradient>
  </defs>
  <rect x="6" y="6" width="52" height="52" rx="14" fill="url(#bg)" />
  <path
    d="M23 19h10v4H23a2 2 0 0 0-2 2v15a2 2 0 0 0 2 2h18a2 2 0 0 0 2-2v-7h4v7a6 6 0 0 1-6 6H23a6 6 0 0 1-6-6V25a6 6 0 0 1 6-6Z"
    fill="#fff"
  />
  <path
    d="M37.8 20.2a2 2 0 0 1 2.8 0l5.4 5.4a2 2 0 0 1-2.8 2.8L41 26.2V33a2 2 0 1 1-4 0v-6.8l-2.2 2.2a2 2 0 1 1-2.8-2.8Z"
    fill="#fff"
  />
</svg>
